<svg width="100" height="100" viewBox="0 0 100 100" fill="none" xmlns="http://www.w3.org/2000/svg">
<g clip-path="url(#clip0_658_2202)">
<rect width="100" height="100" fill="#8E97FD"/>
<path d="M89.9743 99.5911C87.5556 108.496 70.1466 110.666 59.1357 110.76C54.4308 110.799 50.8949 110.461 50.1923 110.112C50.0771 110.057 49.9677 109.985 49.8525 109.908L49.8467 109.902C49.386 109.564 48.9311 109.022 48.528 108.341C48.528 108.341 48.528 108.336 48.5222 108.336C48.5107 108.308 48.4934 108.28 48.4761 108.258C48.4704 108.242 48.4589 108.231 48.4473 108.208C48.4128 108.148 48.3782 108.081 48.3437 108.02C48.2976 107.943 48.2573 107.86 48.217 107.777C48.05 107.434 47.8945 107.063 47.762 106.67C47.6699 106.399 47.5835 106.122 47.5202 105.834C47.5202 105.829 47.5144 105.818 47.5144 105.806C47.4453 105.519 47.382 105.225 47.3474 104.921C47.3474 104.915 47.3474 104.91 47.3417 104.904C47.2841 104.517 47.2553 104.118 47.2495 103.72C47.2495 103.432 47.261 103.15 47.2956 102.862C47.3532 102.275 47.4914 101.694 47.7045 101.141C47.7505 101.025 47.7966 100.908 47.8484 100.798C48.0097 100.443 48.2112 100.106 48.4531 99.7848C48.7698 99.3531 49.1614 98.9546 49.6337 98.6004C49.9274 98.4786 50.2383 98.3569 50.5608 98.2351C55.1967 96.5028 62.6429 95.0914 62.6429 95.0914C62.6429 95.0914 56.7285 89.7893 48.4646 89.7837H48.4473V78.2717H48.4646L60.9613 75.9306C63.1612 76.2571 65.315 76.7165 67.3766 77.281H67.3824C68.6263 77.6242 69.8414 78.0116 71.0277 78.4322C71.6439 78.6536 72.2544 78.8806 72.8475 79.1241C82.436 82.9762 89.3178 89.2856 90.2104 95.667C90.4004 96.9787 90.3256 98.296 89.9743 99.5911Z" fill="url(#paint0_linear_658_2202)"/>
<path opacity="0.45" d="M89.9775 99.5896C87.5588 108.495 70.1499 110.664 59.139 110.758C54.434 110.797 50.8981 110.46 50.1955 110.111C50.0803 110.056 49.9709 109.984 49.8557 109.906L49.85 109.901C49.3893 109.563 48.9343 109.021 48.5312 108.34C48.5312 108.34 48.5312 108.334 48.5254 108.334C48.5139 108.307 48.4967 108.279 48.4794 108.257C48.4736 108.24 48.4621 108.229 48.4506 108.207C48.416 108.146 48.3815 108.08 48.3469 108.019C48.3008 107.941 48.2605 107.858 48.2202 107.775C48.0532 107.432 47.8977 107.061 47.7653 106.668C47.6731 106.397 47.5868 106.12 47.5234 105.833C47.5234 105.827 47.5177 105.816 47.5177 105.805C47.4485 105.517 47.3852 105.224 47.3506 104.919C47.3506 104.914 47.3506 104.908 47.3449 104.903C47.1664 103.652 47.2412 102.335 47.7077 101.134C47.7538 101.018 47.7998 100.901 47.8517 100.791C48.0129 100.436 48.2145 100.099 48.4563 99.7778C48.7731 99.3461 49.1647 98.9476 49.6369 98.5934C49.9306 98.4716 50.2416 98.3499 50.5641 98.2281C51.6698 99.1579 54.0827 100.647 58.0505 100.398C63.7633 100.038 62.076 104.106 67.4086 105.085C72.7471 106.065 71.9005 101.388 77.1468 102.916C82.3874 104.443 82.2895 99.4125 87.1614 99.8553C89.1598 100.043 90.1272 98.1451 90.2194 95.66C90.4037 96.9773 90.3288 98.2945 89.9775 99.5896Z" fill="url(#paint1_linear_658_2202)"/>
<g opacity="0.25">
<path opacity="0.25" d="M84.8755 93.399C84.1038 98.9889 72.8741 100.085 62.0187 101.147C55.8452 101.751 49.9539 102.326 47.2588 103.727C47.2588 103.439 47.2703 103.156 47.3049 102.869C50.2764 101.54 55.7819 101.004 61.9438 100.395C72.0045 99.4095 83.407 98.2916 84.098 93.2993C85.3074 84.5657 67.5414 77.3486 67.3801 77.2822H67.3859C68.6298 77.6253 69.8449 78.0127 71.0312 78.4334C71.6474 78.6548 72.2579 78.8817 72.851 79.1252C77.8612 81.6988 85.7854 86.846 84.8755 93.399Z" fill="white"/>
</g>
<path d="M49.6413 104.13C49.6355 104.224 49.6297 104.323 49.624 104.417C49.6125 104.578 49.5952 104.744 49.5664 104.904C49.5606 104.91 49.5606 104.91 49.5606 104.921V104.927C49.5203 105.231 49.4627 105.519 49.3936 105.807C49.3648 105.917 49.336 106.022 49.3072 106.128C49.2784 106.227 49.2497 106.321 49.2209 106.421C49.1575 106.631 49.0826 106.842 49.002 107.041C48.9041 107.295 48.7947 107.539 48.6853 107.777C48.6047 107.943 48.5183 108.109 48.4319 108.264C48.4146 108.292 48.4031 108.319 48.3858 108.341C48.3801 108.341 48.3801 108.347 48.3801 108.347C47.9769 109.028 47.522 109.57 47.0613 109.908C47.0613 109.908 47.0555 109.908 47.0555 109.913C46.9404 109.991 46.8309 110.063 46.7158 110.118C46.0132 110.467 42.483 110.804 37.7723 110.766C31.7716 110.71 23.882 110.046 17.5415 108.009C12.2376 106.31 8.03946 103.654 6.93376 99.5968C5.09669 92.8445 10.9246 85.5997 20.3518 80.8123C21.1869 80.3861 22.0507 79.9821 22.9375 79.6002C23.7956 79.2294 24.6767 78.8752 25.5809 78.5542C28.8 77.3753 32.2957 76.4787 35.9468 75.9418L48.4434 78.283H48.4607V89.795H48.4434C40.1795 89.8005 34.2652 95.1027 34.2652 95.1027L34.2882 95.1082C34.795 95.2078 42.9265 96.7852 47.2744 98.6116C47.7408 98.9658 48.1324 99.3643 48.4492 99.796C48.691 100.117 48.8926 100.46 49.0538 100.809C49.1057 100.925 49.1575 101.036 49.1978 101.152C49.2439 101.268 49.2842 101.384 49.3188 101.501C49.3994 101.733 49.457 101.971 49.503 102.215C49.5261 102.336 49.5491 102.458 49.5664 102.58C49.6067 102.823 49.6297 103.067 49.6355 103.316C49.6643 103.582 49.6585 103.858 49.6413 104.13Z" fill="url(#paint2_linear_658_2202)"/>
<g opacity="0.25">
<path opacity="0.25" d="M49.637 104.131C49.6312 104.225 49.6255 104.324 49.6197 104.418C49.6082 104.579 49.5909 104.745 49.5621 104.905C49.5563 104.911 49.5563 104.911 49.5563 104.922C46.5848 103.588 39.1329 102.304 33.2013 101.723C22.3458 100.66 11.1161 99.559 10.3444 93.9745C9.55548 88.2517 15.4986 83.5971 20.3533 80.8022C21.0559 80.3981 21.7412 80.0273 22.3747 79.7063C22.9678 79.4628 23.5782 79.2359 24.1944 79.0145C24.6494 78.854 25.1159 78.6935 25.5823 78.544C26.3252 78.3005 27.0739 78.0736 27.834 77.8633H27.8398C27.6728 77.9297 9.91253 85.1468 11.1219 93.8805C11.8129 98.8727 23.2154 99.9907 33.2761 100.976C39.2999 101.562 46.5272 102.841 49.637 104.131Z" fill="white"/>
</g>
<path opacity="0.45" d="M71.0351 78.4351C69.6242 78.4462 67.7122 78.0422 66.428 78.7727C64.3721 79.9461 61.0032 78.2746 58.4866 79.7358C56.3904 80.9589 52.3304 81.0973 48.472 81.7338C48.4662 81.7282 48.4605 81.7338 48.4547 81.7393C47.7003 81.8611 46.9516 81.9994 46.2318 82.1765C41.809 83.2392 38.8144 80.4387 34.979 81.2467C31.1379 82.0548 29.8767 79.1768 26.5827 79.7358C24.8665 80.0291 23.6917 79.8409 22.9546 79.5919C26.8764 77.8983 31.2876 76.6198 35.958 75.9335L48.4547 78.2746H48.472L60.9686 75.9335C64.5046 76.4537 67.8908 77.3171 71.0351 78.4351Z" fill="url(#paint3_linear_658_2202)"/>
<path d="M29.1029 70.0096C25.2963 74.1384 20.0213 78.1953 13.986 78.1953C11.6134 78.1953 9.56897 78.0292 7.81253 77.747C0.464255 76.5958 -1.9199 73.5628 -2.58217 73.0923C-3.39992 72.5057 -4.82812 72.8876 -7.82271 72.1681C-10.8173 71.4486 -13.3224 66.794 -12.2455 66.3623C-11.2435 65.9693 -9.02055 68.6314 -8.40435 69.0521C-8.40435 69.0521 -8.40435 69.0521 -8.39859 69.0576C-8.35252 69.0853 -8.31797 69.1074 -8.28918 69.113C-8.16824 69.1296 -8.12793 69.0133 -8.09337 68.8086C-8.03003 68.3769 -8.02427 67.5633 -7.46566 66.888C-6.64791 65.8974 -5.80136 65.5653 -5.38096 66.3069C-5.37521 66.3235 -5.36369 66.3346 -5.35793 66.3512C-5.02967 67.0818 -6.56153 67.9009 -6.06051 68.7753C-5.54797 69.6775 -3.11198 69.3842 -2.9277 68.4599C-2.74342 67.5356 -3.56117 66.8161 -4.11978 66.6169C-4.31558 66.5449 -4.44803 66.3512 -4.49986 66.1243C-4.59776 65.7036 -4.3962 65.1612 -3.73394 65.0782C-2.72038 64.9399 -1.27491 65.2443 -0.85452 67.0375C-0.439884 68.8252 0.544876 70.3416 2.96935 70.5796C10.6804 71.3323 18.069 65.1502 21.3573 60.158C21.7719 62.2334 22.9871 65.0395 26.2062 67.8511C27.0298 68.5706 27.9857 69.2956 29.1029 70.0096Z" fill="url(#paint4_linear_658_2202)"/>
<path d="M104.708 72.1604C101.707 72.8799 100.285 72.4981 99.4614 73.0847C98.9315 73.4611 97.2845 75.4978 92.8445 76.8815C90.4373 77.6286 87.2123 78.1876 82.8932 78.1876C76.8522 78.1876 71.5829 74.1308 67.7763 70.0075L67.7705 70.0019C67.9375 69.8912 68.1045 69.7861 68.2715 69.6754C68.45 69.5592 68.6228 69.4429 68.7841 69.3156C68.928 69.216 69.0662 69.1164 69.2045 69.0112C69.4982 68.7899 69.7861 68.5685 70.0568 68.3471C70.4656 68.015 70.8457 67.6829 71.197 67.3564C71.4389 67.135 71.6635 66.9136 71.8708 66.6922C72.2336 66.3159 72.5676 65.9395 72.8671 65.5632C73.5696 64.6887 74.1052 63.8364 74.5083 63.0283C75.0382 61.9712 75.3491 60.9916 75.5161 60.1337C75.5219 60.1337 75.5219 60.1393 75.5219 60.1393C78.3956 64.5005 84.402 69.775 91.0132 70.5277C91.9634 70.6384 92.9366 70.655 93.9041 70.5609C96.3286 70.3285 97.3133 68.812 97.728 67.0243C98.1484 65.2366 99.5881 64.9322 100.607 65.0651C101.627 65.2034 101.558 66.4044 100.993 66.6037C100.435 66.8029 99.6111 67.5224 99.8011 68.4467C99.9912 69.371 102.421 69.6643 102.934 68.7622C103.446 67.8656 101.834 67.0299 102.254 66.2882C102.675 65.5466 103.521 65.8842 104.339 66.8694C105.163 67.86 104.783 69.1385 105.163 69.0943C105.537 69.05 108.036 65.9229 109.113 66.3491C110.207 66.7863 107.702 71.4409 104.708 72.1604Z" fill="url(#paint5_linear_658_2202)"/>
<path d="M41.3988 27.4135C41.0188 27.6404 40.7078 28.0057 40.6387 28.0887C40.8517 27.7566 41.1512 27.5407 41.3988 27.4135Z" stroke="black" stroke-width="3.5904" stroke-miterlimit="10"/>
<path opacity="0.45" d="M46.228 79.2662C46.228 79.2662 47.0458 83.4061 47.5122 84.3027C47.9787 85.2049 49.1017 85.072 49.1017 85.072" stroke="white" stroke-width="3.762" stroke-miterlimit="10"/>
<path opacity="0.45" d="M48.8228 79.7408L48.961 89.7916" stroke="white" stroke-width="3.762" stroke-miterlimit="10"/>
<path d="M75.531 60.1439C75.364 61.0018 75.053 61.9814 74.5232 63.0385C74.1201 63.8466 73.5845 64.6989 72.8762 65.5733C72.5767 65.9442 72.2427 66.3205 71.8799 66.7024C71.6726 66.9183 71.448 67.1452 71.2061 67.3666C70.8549 67.7042 70.4805 68.0307 70.0659 68.3573C69.7952 68.5786 69.513 68.8 69.2136 69.0214C69.0754 69.1266 68.9372 69.2262 68.7932 69.3258C68.6262 69.4476 68.4534 69.5693 68.2807 69.6856C68.1194 69.7963 67.9524 69.9014 67.7854 70.0121L67.7796 70.0066C67.221 69.4033 66.697 68.7945 66.2075 68.1968C66.2017 68.1968 66.2017 68.1968 66.2017 68.1968C63.2244 64.5937 61.491 61.4003 61.491 61.4003C61.491 61.4003 60.6445 65.922 61.2088 68.4126C61.7732 70.9087 62.6831 74.0136 62.2627 75.5633C61.8423 77.113 54.2867 80.0796 48.4415 80.0796C44.6291 80.0796 40.0854 78.8177 37.2694 77.506C35.7721 76.8086 34.77 76.1002 34.6203 75.5633C34.2057 74.0081 35.1098 70.9032 35.6742 68.4126C36.2328 65.922 35.3862 61.4003 35.3862 61.4003C35.3862 61.4003 33.0309 65.7394 29.0976 70.0121C27.9804 69.2981 27.0244 68.5731 26.1951 67.8481C22.9759 65.0365 21.7666 62.2304 21.3462 60.155C21.5765 59.8007 21.7896 59.4521 21.9854 59.1089C24.502 54.6204 30.8425 41.1823 42.9303 37.9058C44.6464 37.4409 46.4835 37.1808 48.4415 37.1808C50.4801 37.1808 52.392 37.4686 54.1715 37.9722C59.1241 39.3725 63.1092 42.4829 66.242 45.9587C70.6706 50.8623 73.4233 56.4966 74.8918 59.1089C75.0876 59.441 75.3007 59.7841 75.531 60.1439C75.531 60.1439 75.531 60.1384 75.531 60.1439Z" fill="url(#paint6_linear_658_2202)"/>
<path d="M54.1949 38.0857C53.308 40.3217 51.6264 42.6075 48.4648 42.2478C44.5603 41.805 43.3337 39.5413 42.9536 38.0248C44.6697 37.5599 46.5068 37.2998 48.4648 37.2998C50.5034 37.2998 52.4154 37.5821 54.1949 38.0857Z" fill="url(#paint7_linear_658_2202)"/>
<path d="M51.4803 39.0122C51.1981 39.7317 49.4935 40.4512 48.4742 40.4512C47.668 40.4512 46.4241 40.0029 45.8021 39.4494C45.6409 39.311 45.5199 39.1561 45.4623 39.0122C45.1801 38.2927 45.4623 35.2819 45.4623 35.2819L48.4742 34.1583L51.4803 35.2819C51.4803 35.2819 51.5206 35.6969 51.5552 36.2559C51.607 37.2024 51.6531 38.5583 51.4803 39.0122Z" fill="url(#paint8_linear_658_2202)"/>
<path d="M56.546 29.6136C56.1429 31.6393 54.7205 31.3183 54.7205 31.3183C54.7205 31.3183 54.7205 31.3515 54.7147 31.4123C54.6974 31.9547 54.4441 34.7054 51.5128 35.8622C50.7066 36.1776 49.7045 36.3769 48.4549 36.3769C47.7523 36.3769 47.1303 36.316 46.5775 36.2053C46.1456 36.1223 45.7597 36.0061 45.4085 35.8677C42.1374 34.5837 42.1893 31.3183 42.1893 31.3183C42.1893 31.3183 40.7841 31.7278 40.3753 29.7021C40.2313 28.9937 40.3695 28.479 40.6171 28.1082C40.6171 28.1082 40.6229 28.1026 40.6344 28.0916C40.8475 27.7595 41.1469 27.5436 41.3946 27.4164C41.4118 27.4053 41.4349 27.3942 41.4522 27.3887C41.5616 27.3333 41.6595 27.3001 41.7228 27.2725C41.7401 27.2614 41.7689 27.2558 41.7862 27.2558C41.8092 27.2448 41.8322 27.2392 41.8553 27.2392C41.8553 27.2392 42.0914 29.4531 42.4427 29.4863C42.5521 29.4974 42.7306 29.038 42.9264 28.4015C43.3641 26.9791 43.8824 24.6656 43.8824 24.6656C43.8824 24.6656 45.4948 25.208 48.6507 25.4405C51.8123 25.6729 52.2672 25.1029 52.2672 25.1029C52.2672 25.1029 52.3651 25.2634 52.5494 25.446C52.7625 25.6563 53.085 25.8943 53.4996 25.9497C53.4996 25.9497 53.9546 29.4918 54.3058 29.4918C54.6571 29.4918 55.0718 27.2448 55.0718 27.2448C55.0718 27.2448 56.9549 27.5879 56.546 29.6136Z" fill="url(#paint9_linear_658_2202)"/>
<path d="M56.3362 23.9688C57.0388 25.4853 55.0693 27.2287 55.0693 27.2287C55.0693 27.2287 54.6546 29.4758 54.3033 29.4758C53.9463 29.4758 53.4971 25.9336 53.4971 25.9336C52.7254 25.834 52.2705 25.0868 52.2705 25.0868C52.2705 25.0868 51.8155 25.6569 48.6539 25.4244C45.4923 25.192 43.8856 24.6496 43.8856 24.6496C43.8856 24.6496 42.7972 29.509 42.4459 29.4702C42.0946 29.437 41.8585 27.2232 41.8585 27.2232C41.8355 27.2287 41.8124 27.2287 41.7894 27.2398C41.7721 27.2453 41.7433 27.2453 41.7261 27.2564C41.6339 27.2785 41.5475 27.3228 41.4554 27.3726C41.4381 27.3781 41.4208 27.3892 41.3978 27.4003C41.1502 27.5276 40.8507 27.7434 40.6376 28.0755C40.6261 28.0866 40.6204 28.0921 40.6204 28.0921C40.6204 28.0921 39.4686 26.9022 38.8812 25.5573C38.6105 24.9429 38.4666 24.2954 38.6105 23.7198C39.0655 21.8989 40.9256 22.5409 40.9256 22.5409C40.9256 22.5409 40.7471 21.5281 40.8334 20.3326C40.9313 18.9157 41.3863 17.2332 42.9296 16.6687C45.7745 15.6226 47.6346 17.7147 47.6346 17.7147C47.6346 17.7147 51.1129 14.6762 55.7776 15.927C57.1943 16.3034 58.0811 17.1336 58.5533 18.1187C58.5591 18.1187 58.5591 18.1243 58.5591 18.1243C58.824 18.6777 58.9507 19.2755 58.968 19.8788C59.0198 21.7661 57.9659 23.6312 56.3362 23.9688Z" fill="#2D4D6D"/>
<path opacity="0.45" d="M51.5548 36.2545C50.9674 36.2933 49.8042 36.4704 49.4932 37.3006C49.0728 38.4296 47.9728 37.5275 47.0802 38.8503C46.7232 39.3816 46.2625 39.4812 45.8018 39.448C45.6405 39.3096 45.5196 39.1547 45.462 39.0108C45.2604 38.4905 45.3468 36.7858 45.4159 35.8671C46.2164 36.1826 47.2184 36.3763 48.4624 36.3763C49.7178 36.3763 50.7198 36.177 51.5203 35.8616C51.5318 35.9833 51.5433 36.1106 51.5548 36.2545Z" fill="url(#paint10_linear_658_2202)"/>
<path d="M45.8062 29.8073C45.8062 29.442 46.0653 29.1487 46.382 29.1487C46.6988 29.1487 46.9579 29.442 46.9579 29.8073" stroke="url(#paint11_linear_658_2202)" stroke-width="3.762" stroke-miterlimit="10" stroke-linecap="round" stroke-linejoin="round"/>
<path d="M49.9863 29.805C49.9863 29.4397 50.2455 29.1464 50.5622 29.1464C50.8789 29.1464 51.1381 29.4397 51.1381 29.805" stroke="url(#paint12_linear_658_2202)" stroke-width="3.762" stroke-miterlimit="10" stroke-linecap="round" stroke-linejoin="round"/>
<path d="M46.2578 32.0614H50.6748C50.6748 32.0614 50.2775 33.6111 48.3483 33.6111C46.6033 33.6166 46.2578 32.0614 46.2578 32.0614Z" fill="white"/>
<path opacity="0.45" d="M41.3996 28.7834C40.9389 28.7004 40.9159 30.1117 41.3996 30.2003C41.8833 30.2888 41.9006 28.872 41.3996 28.7834Z" fill="url(#paint13_linear_658_2202)"/>
<path opacity="0.45" d="M55.2773 28.7834C55.738 28.7004 55.7611 30.1117 55.2773 30.2003C54.7993 30.2888 54.7763 28.872 55.2773 28.7834Z" fill="url(#paint14_linear_658_2202)"/>
<path opacity="0.45" d="M52.5498 25.4334C52.0315 25.8098 51.5074 26.2802 50.897 26.5791C49.7395 27.1491 49.2442 26.1418 47.6663 27.0883C46.0884 28.0292 45.9156 26.8835 44.9654 27.7524C44.3607 28.3114 43.4738 28.4055 42.9268 28.3944C43.3644 26.972 43.8827 24.6586 43.8827 24.6586C43.8827 24.6586 45.4952 25.201 48.651 25.4334C51.8126 25.6659 52.2676 25.0958 52.2676 25.0958C52.2676 25.0958 52.3712 25.2508 52.5498 25.4334Z" fill="url(#paint15_linear_658_2202)"/>
<path opacity="0.45" d="M54.7232 31.4149C54.7059 31.9573 54.4525 34.708 51.5212 35.8647C50.715 36.1802 49.713 36.3795 48.4633 36.3795C47.7607 36.3795 47.1388 36.3186 46.5859 36.2079C46.5859 36.2079 47.2079 35.35 48.5843 35.5493C49.9606 35.754 49.5748 34.6084 50.9569 34.7578C52.3448 34.9072 52.1144 33.424 53.0934 33.3409C54.0782 33.2524 53.6923 31.3762 54.7232 31.4149Z" fill="url(#paint16_linear_658_2202)"/>
<path opacity="0.45" d="M58.9652 19.9004C59.0227 21.7656 57.9631 23.6307 56.3391 23.9683C57.0417 25.4848 55.0722 27.2282 55.0722 27.2282C55.0722 27.2282 54.6575 29.4753 54.3063 29.4753C53.9492 29.4753 53.5 25.9331 53.5 25.9331C52.7283 25.8335 52.2734 25.0863 52.2734 25.0863C52.2734 25.0863 51.8184 25.6564 48.6569 25.4239C45.4953 25.1915 43.8885 24.6491 43.8885 24.6491C43.8885 24.6491 42.8001 29.5085 42.4488 29.4697C42.0975 29.4365 41.8614 27.2227 41.8614 27.2227C41.8384 27.2282 41.8154 27.2282 41.7923 27.2393C41.7751 27.2448 41.7463 27.2448 41.729 27.2559C41.6368 27.278 41.5505 27.3223 41.4583 27.3721C41.441 27.3777 41.4238 27.3887 41.4007 27.3998C41.1531 27.5271 40.8536 27.7429 40.6406 28.075C40.629 28.0861 40.6233 28.0916 40.6233 28.0916C40.6233 28.0916 39.4715 26.9017 38.8841 25.5568C38.6135 24.9424 38.4695 24.2949 38.6135 23.7193C39.0684 21.8984 40.9285 22.5404 40.9285 22.5404C40.9285 22.5404 40.75 21.5276 40.8364 20.3321C41.6426 20.404 42.6101 20.714 43.4221 21.6272C45.1785 23.5864 47.9773 21.1567 49.9814 22.7729C51.9855 24.3945 52.7283 20.5369 54.9109 22.0976C56.2067 23.0607 58.0783 21.7157 58.9652 19.9004Z" fill="url(#paint17_linear_658_2202)"/>
<path opacity="0.45" d="M62.2912 75.689C61.8708 77.2387 54.3094 80.2108 48.47 80.2108C44.6576 80.2108 40.1139 78.9489 37.2979 77.6372C39.7799 76.5303 44.8822 78.3678 46.2298 74.9474C47.7732 71.0344 52.3399 74.1836 52.6912 69.2966C53.0425 64.415 57.0449 67.2543 58.6574 63.9501C60.2698 60.646 61.5195 61.526 61.5195 61.526C61.5195 61.526 60.6787 66.0477 61.2373 68.5383C61.7959 71.0344 62.7058 74.1393 62.2912 75.689Z" fill="url(#paint18_linear_658_2202)"/>
<path opacity="0.45" d="M35.3901 61.3982C35.3901 61.3982 33.029 65.7429 29.1014 70.0101C25.2949 74.1389 20.0198 78.1958 13.9845 78.1958C11.6119 78.1958 9.56748 78.0297 7.81104 77.7475C9.18164 77.1663 10.4774 76.4967 13.138 76.9173C18.3324 77.7253 18.1942 72.4619 23.0374 71.6539C25.4619 71.2498 25.8477 69.6227 26.199 67.846C26.5388 66.0805 26.8497 64.1655 29.1014 63.1527C33.6221 61.127 30.5527 56.3396 34.2038 54.9891C35.7471 56.2676 35.3901 61.3982 35.3901 61.3982Z" fill="url(#paint19_linear_658_2202)"/>
<path opacity="0.45" d="M62.6491 95.089C62.6491 95.089 56.7347 89.7868 48.4708 89.7813H48.4535C40.1896 89.7868 34.2753 95.089 34.2753 95.089C34.2753 95.089 27.8197 93.0246 25.5679 92.8475C23.322 92.6648 25.6658 90.9602 29.1269 91.6797C32.588 92.3992 29.9677 90.4178 31.2749 89.3385C32.5822 88.2593 33.3539 90.2407 35.4501 90.2407C37.5463 90.2407 36.7516 87.6339 40.1666 87.3129C43.5873 86.9974 43.4434 88.215 45.315 87.9438C46.6049 87.7556 47.2499 86.6819 48.4478 86.1395C48.4535 86.134 48.4593 86.134 48.4651 86.134C49.0064 85.8905 49.6687 85.7632 50.5555 85.8739C53.4119 86.2336 54.1145 88.9345 55.8479 89.5212C57.5755 90.1023 59.3492 87.9438 62.3957 88.7574C65.4421 89.5654 64.6474 92.6316 65.4421 93.3511C66.2368 94.0651 69.6115 92.8087 70.0722 93.6611C70.5444 94.5134 62.6491 95.089 62.6491 95.089Z" fill="url(#paint20_linear_658_2202)"/>
<path opacity="0.45" d="M98.9342 70.1186C103.311 70.8215 105.177 69.139 105.269 69.0504C105.223 69.0781 105.188 69.1002 105.159 69.1058C105.039 69.1224 104.998 69.0061 104.964 68.8014C104.584 68.6962 103.921 68.6685 103.472 68.5191C102.793 68.2922 103.495 66.9417 102.793 66.5875C102.614 66.499 102.43 66.4159 102.228 66.344C101.9 67.0746 103.432 67.8937 102.931 68.7681C102.418 69.6703 99.9823 69.377 99.798 68.4527C99.6137 67.5284 100.431 66.8089 100.99 66.6097C101.186 66.5377 101.318 66.344 101.37 66.1171C100.967 66.0617 100.518 66.0617 100.005 66.1614C98.8133 66.3827 99.5389 67.1244 98.8132 67.8273C98.0934 68.5191 98.3295 69.5319 98.9342 70.1186Z" fill="url(#paint21_linear_658_2202)"/>
<path opacity="0.45" d="M92.8444 76.8819C90.4372 77.6291 87.2123 78.1881 82.8932 78.1881C76.8522 78.1881 71.5828 74.1312 67.782 70.0079L67.7763 70.0024C67.2234 69.3991 66.6936 68.7903 66.2041 68.1926C66.279 68.2202 67.3962 68.6243 68.7898 69.3216C70.3389 70.0965 72.2336 71.2255 73.3969 72.5871C75.6428 75.216 78.5971 73.6884 81.1886 75.9355C83.7858 78.1826 86.2103 75.62 88.5771 76.5056C89.7059 76.9207 91.3875 76.9594 92.8444 76.8819Z" fill="url(#paint22_linear_658_2202)"/>
<path opacity="0.45" d="M91.0212 70.5288C86.6848 72.4936 80.7013 68.3481 78.7664 66.0734C77.4418 64.5126 75.7891 64.1584 74.5221 63.0349C74.5164 63.0349 74.5164 63.0349 74.5164 63.0349C73.8656 62.4648 73.3185 61.69 72.9557 60.4613C71.8903 56.8085 71.2281 55.4082 68.3198 51.6225C66.3791 49.0877 66.166 47.0343 66.2409 45.9551C70.6695 50.8587 73.4222 56.493 74.8907 59.1053C75.0807 59.4485 75.2996 59.7916 75.5242 60.1458C75.5299 60.1458 75.5299 60.1514 75.5299 60.1514C78.4036 64.5016 84.41 69.7761 91.0212 70.5288Z" fill="url(#paint23_linear_658_2202)"/>
</g>
<defs>
<linearGradient id="paint0_linear_658_2202" x1="67.119" y1="68.9404" x2="69.7131" y2="121.844" gradientUnits="userSpaceOnUse">
<stop stop-color="#2D4D6D"/>
<stop offset="1" stop-color="#4B7999"/>
</linearGradient>
<linearGradient id="paint1_linear_658_2202" x1="67.8517" y1="127.229" x2="68.9756" y2="92.415" gradientUnits="userSpaceOnUse">
<stop/>
<stop offset="1" stop-opacity="0"/>
</linearGradient>
<linearGradient id="paint2_linear_658_2202" x1="26.6396" y1="70.9256" x2="29.2335" y2="123.826" gradientUnits="userSpaceOnUse">
<stop stop-color="#2D4D6D"/>
<stop offset="1" stop-color="#4B7999"/>
</linearGradient>
<linearGradient id="paint3_linear_658_2202" x1="47.3737" y1="59.7481" x2="46.855" y2="88.2187" gradientUnits="userSpaceOnUse">
<stop/>
<stop offset="1" stop-opacity="0"/>
</linearGradient>
<linearGradient id="paint4_linear_658_2202" x1="-25.0356" y1="81.7442" x2="50.9797" y2="52.9999" gradientUnits="userSpaceOnUse">
<stop stop-color="#FFE5C0"/>
<stop offset="1" stop-color="#FFA992"/>
</linearGradient>
<linearGradient id="paint5_linear_658_2202" x1="52.3723" y1="79.6306" x2="132.703" y2="49.2546" gradientUnits="userSpaceOnUse">
<stop stop-color="#FFE5C0"/>
<stop offset="1" stop-color="#FFA992"/>
</linearGradient>
<linearGradient id="paint6_linear_658_2202" x1="49.8192" y1="37.2126" x2="47.4409" y2="80.0502" gradientUnits="userSpaceOnUse">
<stop stop-color="#84DBC7"/>
<stop offset="1" stop-color="#33C2CF"/>
</linearGradient>
<linearGradient id="paint7_linear_658_2202" x1="48.4811" y1="23.3269" x2="48.6107" y2="45.5899" gradientUnits="userSpaceOnUse">
<stop stop-color="#2D4D6D"/>
<stop offset="1" stop-color="#4B7999"/>
</linearGradient>
<linearGradient id="paint8_linear_658_2202" x1="52.2538" y1="40.9914" x2="43.864" y2="31.8882" gradientUnits="userSpaceOnUse">
<stop stop-color="#FFE5C0"/>
<stop offset="1" stop-color="#FFA992"/>
</linearGradient>
<linearGradient id="paint9_linear_658_2202" x1="48.7048" y1="37.671" x2="48.2509" y2="20.2643" gradientUnits="userSpaceOnUse">
<stop stop-color="#FFE5C0"/>
<stop offset="1" stop-color="#FFA992"/>
</linearGradient>
<linearGradient id="paint10_linear_658_2202" x1="46.2916" y1="34.4988" x2="52.7236" y2="43.8684" gradientUnits="userSpaceOnUse">
<stop/>
<stop offset="1" stop-opacity="0"/>
</linearGradient>
<linearGradient id="paint11_linear_658_2202" x1="46.2403" y1="28.9724" x2="46.4208" y2="30.0848" gradientUnits="userSpaceOnUse">
<stop stop-color="#561111"/>
<stop offset="1" stop-color="#862E2D"/>
</linearGradient>
<linearGradient id="paint12_linear_658_2202" x1="50.4163" y1="28.9701" x2="50.5968" y2="30.0825" gradientUnits="userSpaceOnUse">
<stop stop-color="#561111"/>
<stop offset="1" stop-color="#862E2D"/>
</linearGradient>
<linearGradient id="paint13_linear_658_2202" x1="40.3046" y1="27.9393" x2="44.6237" y2="34.5305" gradientUnits="userSpaceOnUse">
<stop/>
<stop offset="1" stop-opacity="0"/>
</linearGradient>
<linearGradient id="paint14_linear_658_2202" x1="56.3733" y1="27.9393" x2="52.0542" y2="34.5306" gradientUnits="userSpaceOnUse">
<stop/>
<stop offset="1" stop-opacity="0"/>
</linearGradient>
<linearGradient id="paint15_linear_658_2202" x1="45.1608" y1="23.1512" x2="50.2383" y2="31.1624" gradientUnits="userSpaceOnUse">
<stop/>
<stop offset="1" stop-opacity="0"/>
</linearGradient>
<linearGradient id="paint16_linear_658_2202" x1="54.9573" y1="40.2832" x2="47.7963" y2="28.6238" gradientUnits="userSpaceOnUse">
<stop stop-color="white"/>
<stop offset="1" stop-color="white" stop-opacity="0"/>
</linearGradient>
<linearGradient id="paint17_linear_658_2202" x1="49.7049" y1="38.3692" x2="48.343" y2="12.9967" gradientUnits="userSpaceOnUse">
<stop/>
<stop offset="1" stop-opacity="0"/>
</linearGradient>
<linearGradient id="paint18_linear_658_2202" x1="60.3587" y1="82.4735" x2="43.3269" y2="60.762" gradientUnits="userSpaceOnUse">
<stop/>
<stop offset="1" stop-opacity="0"/>
</linearGradient>
<linearGradient id="paint19_linear_658_2202" x1="25.8918" y1="71.0928" x2="13.2222" y2="57.8164" gradientUnits="userSpaceOnUse">
<stop/>
<stop offset="1" stop-opacity="0"/>
</linearGradient>
<linearGradient id="paint20_linear_658_2202" x1="47.2698" y1="108.397" x2="47.5291" y2="72.6408" gradientUnits="userSpaceOnUse">
<stop/>
<stop offset="1" stop-opacity="0"/>
</linearGradient>
<linearGradient id="paint21_linear_658_2202" x1="101.418" y1="72.4324" x2="102.976" y2="57.6669" gradientUnits="userSpaceOnUse">
<stop/>
<stop offset="1" stop-opacity="0"/>
</linearGradient>
<linearGradient id="paint22_linear_658_2202" x1="75.8978" y1="79.7856" x2="85.173" y2="59.7307" gradientUnits="userSpaceOnUse">
<stop/>
<stop offset="1" stop-opacity="0"/>
</linearGradient>
<linearGradient id="paint23_linear_658_2202" x1="84.9721" y1="50.6984" x2="68.3069" y2="72.1511" gradientUnits="userSpaceOnUse">
<stop stop-color="white"/>
<stop offset="1" stop-color="white" stop-opacity="0"/>
</linearGradient>
<clipPath id="clip0_658_2202">
<rect width="100" height="100" fill="white"/>
</clipPath>
</defs>
</svg>
